<svg width="100" height="40" viewBox="0 0 200 40" fill="none" xmlns="http://www.w3.org/2000/svg">
<path d="M18.0979 5.8541C18.6966 4.01148 21.3034 4.01148 21.9021 5.8541L24.0413 12.4377C24.309 13.2617 25.0769 13.8197 25.9434 13.8197H32.8658C34.8032 13.8197 35.6088 16.2989 34.0413 17.4377L28.441 21.5066C27.74 22.0159 27.4467 22.9186 27.7145 23.7426L29.8536 30.3262C30.4523 32.1689 28.3433 33.7011 26.7759 32.5623L21.1756 28.4934C20.4746 27.9841 19.5254 27.9841 18.8244 28.4934L13.2241 32.5623C11.6567 33.7011 9.5477 32.1689 10.1464 30.3262L12.2855 23.7426C12.5533 22.9186 12.26 22.0159 11.559 21.5066L5.95867 17.4377C4.39124 16.2989 5.19679 13.8197 7.13424 13.8197H14.0566C14.9231 13.8197 15.691 13.2617 15.9587 12.4377L18.0979 5.8541Z" fill="#FFC107"/>
<path d="M58.0979 5.8541C58.6966 4.01148 61.3034 4.01148 61.9021 5.8541L64.0413 12.4377C64.309 13.2617 65.0769 13.8197 65.9434 13.8197H72.8658C74.8032 13.8197 75.6088 16.2989 74.0413 17.4377L68.441 21.5066C67.74 22.0159 67.4467 22.9186 67.7145 23.7426L69.8536 30.3262C70.4523 32.1689 68.3433 33.7011 66.7759 32.5623L61.1756 28.4934C60.4746 27.9841 59.5254 27.9841 58.8244 28.4934L53.2241 32.5623C51.6567 33.7011 49.5477 32.1689 50.1464 30.3262L52.2855 23.7426C52.5533 22.9186 52.26 22.0159 51.559 21.5066L45.9587 17.4377C44.3912 16.2989 45.1968 13.8197 47.1342 13.8197H54.0566C54.9231 13.8197 55.691 13.2617 55.9587 12.4377L58.0979 5.8541Z" fill="#FFC107"/>
<path d="M98.0979 5.8541C98.6966 4.01148 101.303 4.01148 101.902 5.8541L104.041 12.4377C104.309 13.2617 105.077 13.8197 105.943 13.8197H112.866C114.803 13.8197 115.609 16.2989 114.041 17.4377L108.441 21.5066C107.74 22.0159 107.447 22.9186 107.714 23.7426L109.854 30.3262C110.452 32.1689 108.343 33.7011 106.776 32.5623L101.176 28.4934C100.475 27.9841 99.5254 27.9841 98.8244 28.4934L93.2241 32.5623C91.6567 33.7011 89.5477 32.1689 90.1464 30.3262L92.2855 23.7426C92.5533 22.9186 92.26 22.0159 91.559 21.5066L85.9587 17.4377C84.3912 16.2989 85.1968 13.8197 87.1342 13.8197H94.0566C94.9231 13.8197 95.691 13.2617 95.9587 12.4377L98.0979 5.8541Z" fill="#FFC107"/>
<path d="M138.098 5.8541C138.697 4.01148 141.303 4.01148 141.902 5.8541L144.041 12.4377C144.309 13.2617 145.077 13.8197 145.943 13.8197H152.866C154.803 13.8197 155.609 16.2989 154.041 17.4377L148.441 21.5066C147.74 22.0159 147.447 22.9186 147.714 23.7426L149.854 30.3262C150.452 32.1689 148.343 33.7011 146.776 32.5623L141.176 28.4934C140.475 27.9841 139.525 27.9841 138.824 28.4934L133.224 32.5623C131.657 33.7011 129.548 32.1689 130.146 30.3262L132.286 23.7426C132.553 22.9186 132.26 22.0159 131.559 21.5066L125.959 17.4377C124.391 16.2989 125.197 13.8197 127.134 13.8197H134.057C134.923 13.8197 135.691 13.2617 135.959 12.4377L138.098 5.8541Z" fill="#FFC107"/>
<path d="M178.098 5.8541C178.697 4.01148 181.303 4.01148 181.902 5.8541L184.041 12.4377C184.309 13.2617 185.077 13.8197 185.943 13.8197H192.866C194.803 13.8197 195.609 16.2989 194.041 17.4377L188.441 21.5066C187.74 22.0159 187.447 22.9186 187.714 23.7426L189.854 30.3262C190.452 32.1689 188.343 33.7011 186.776 32.5623L181.176 28.4934C180.475 27.9841 179.525 27.9841 178.824 28.4934L173.224 32.5623C171.657 33.7011 169.548 32.1689 170.146 30.3262L172.286 23.7426C172.553 22.9186 172.26 22.0159 171.559 21.5066L165.959 17.4377C164.391 16.2989 165.197 13.8197 167.134 13.8197H174.057C174.923 13.8197 175.691 13.2617 175.959 12.4377L178.098 5.8541Z" fill="#FFC107"/>
</svg>
