<svg width="150" height="70" viewBox="0 0 418 70" fill="none" xmlns="http://www.w3.org/2000/svg">
<ellipse cx="146.365" cy="34.4997" rx="21.2838" ry="21.3889" fill="#5C2C06"/>
<path d="M173.73 34.5C173.73 49.6878 161.478 62 146.365 62C131.252 62 119 49.6878 119 34.5C119 19.3122 131.252 7 146.365 7C161.478 7 173.73 19.3122 173.73 34.5ZM120.537 34.5C120.537 48.8347 132.101 60.4553 146.365 60.4553C160.629 60.4553 172.193 48.8347 172.193 34.5C172.193 20.1653 160.629 8.54466 146.365 8.54466C132.101 8.54466 120.537 20.1653 120.537 34.5Z" fill="#5C2C06"/>
<ellipse cx="212.041" cy="34.4997" rx="21.2838" ry="21.3889" fill="#A09E9E"/>
<ellipse cx="277.716" cy="34.4997" rx="21.2838" ry="21.3889" fill="#A09E9E"/>
<path fill-rule="evenodd" clip-rule="evenodd" d="M415.217 38.8883L361.441 70L348 62.2234L395.055 35L348 7.77656L361.441 0L415.217 31.1117C416.999 32.1431 418 33.5417 418 35C418 36.4583 416.999 37.8569 415.217 38.8883Z" fill="black"/>
<path fill-rule="evenodd" clip-rule="evenodd" d="M2.78323 31.1117L56.5585 0L70 7.77655L22.9454 35L70 62.2234L56.5585 70L2.78323 38.8883C1.00113 37.8569 0 36.4583 0 35C0 33.5417 1.00113 32.1431 2.78323 31.1117Z" fill="black"/>
</svg>
