<svg width="140" height="40" viewBox="0 0 228 40" fill="none" xmlns="http://www.w3.org/2000/svg">
<g clip-path="url(#clip0_34_409)">
<mask id="mask0_34_409" style="mask-type:luminance" maskUnits="userSpaceOnUse" x="0" y="0" width="40" height="40">
<path d="M0 0H40V40H0V0Z" fill="white"/>
</mask>
<g mask="url(#mask0_34_409)">
<path fill-rule="evenodd" clip-rule="evenodd" d="M0 20.1117C0 30.0567 7.22167 38.3233 16.6667 40V25.555H11.6667V20H16.6667V15.555C16.6667 10.555 19.8883 7.77833 24.445 7.77833C25.8883 7.77833 27.445 8 28.8883 8.22167V13.3333H26.3333C23.8883 13.3333 23.3333 14.555 23.3333 16.1117V20H28.6667L27.7783 25.555H23.3333V40C32.7783 38.3233 40 30.0567 40 20.1117C40 9.05 31 0 20 0C9 0 0 9.05 0 20.1117Z" fill="white"/>
</g>
</g>
<path d="M110.036 0H128.275C135.223 0 140.868 5.2 140.868 11.6V28.4C140.868 31.4765 139.541 34.427 137.18 36.6024C134.818 38.7779 131.615 40 128.275 40H110.036C103.088 40 97.4421 34.8 97.4421 28.4V11.6C97.4421 8.52349 98.769 5.57298 101.131 3.39756C103.492 1.22214 106.696 0 110.036 0ZM109.601 4C107.528 4 105.54 4.75857 104.074 6.10883C102.608 7.45909 101.785 9.29044 101.785 11.2V28.8C101.785 32.78 105.281 36 109.601 36H128.709C130.782 36 132.77 35.2414 134.236 33.8912C135.702 32.5409 136.525 30.7096 136.525 28.8V11.2C136.525 7.22 133.03 4 128.709 4H109.601ZM130.554 7C131.274 7 131.965 7.26339 132.474 7.73223C132.983 8.20107 133.269 8.83696 133.269 9.5C133.269 10.163 132.983 10.7989 132.474 11.2678C131.965 11.7366 131.274 12 130.554 12C129.835 12 129.144 11.7366 128.635 11.2678C128.126 10.7989 127.84 10.163 127.84 9.5C127.84 8.83696 128.126 8.20107 128.635 7.73223C129.144 7.26339 129.835 7 130.554 7ZM119.155 10C122.034 10 124.796 11.0536 126.832 12.9289C128.868 14.8043 130.012 17.3478 130.012 20C130.012 22.6522 128.868 25.1957 126.832 27.0711C124.796 28.9464 122.034 30 119.155 30C116.276 30 113.514 28.9464 111.478 27.0711C109.442 25.1957 108.299 22.6522 108.299 20C108.299 17.3478 109.442 14.8043 111.478 12.9289C113.514 11.0536 116.276 10 119.155 10ZM119.155 14C117.428 14 115.771 14.6321 114.549 15.7574C113.327 16.8826 112.641 18.4087 112.641 20C112.641 21.5913 113.327 23.1174 114.549 24.2426C115.771 25.3679 117.428 26 119.155 26C120.883 26 122.54 25.3679 123.761 24.2426C124.983 23.1174 125.669 21.5913 125.669 20C125.669 18.4087 124.983 16.8826 123.761 15.7574C122.54 14.6321 120.883 14 119.155 14Z" fill="white"/>
<g clip-path="url(#clip1_34_409)">
<mask id="mask1_34_409" style="mask-type:luminance" maskUnits="userSpaceOnUse" x="188" y="0" width="40" height="40">
<path d="M188 0H228V40H188V0Z" fill="white"/>
</mask>
<g mask="url(#mask1_34_409)">
<path d="M219.5 1.87427H225.634L212.234 17.2286L228 38.1257H215.657L205.983 25.4543L194.926 38.1257H188.786L203.117 21.6971L188 1.87712H200.657L209.389 13.4571L219.5 1.87427ZM217.343 34.4457H220.743L198.8 5.36284H195.154L217.343 34.4457Z" fill="white"/>
</g>
</g>
<defs>
<clipPath id="clip0_34_409">
<rect width="40" height="40" fill="white"/>
</clipPath>
<clipPath id="clip1_34_409">
<rect width="40" height="40" fill="white" transform="translate(188)"/>
</clipPath>
</defs>
</svg>
